PathFileType	4	(X/Y/Z)	/Users/itak/Documents/Research/Walk-IL/dataset/trc/00282_00010.trc
DataRate	CameraRate	NumFrames	NumMarkers	Units	OrigDataRate	OrigDataStartFrame	OrigNumFrames
100.000000	100.000000	4	53	mm	100.000000	393	630
Frame#	Time	RPSI			LPSI			L3			STRN			T10			C7			CLAV			RBAK			LBAK			LSHO			LUPA			LAEL			LAOL			LWTS			LWPS			LFRA			LIFD			LHPS			LHTS			RSHO			RUPA			RAEL			RAOL			RWTS			RWPS			RFRA			RIFD			RHTS			RHPS			RBHD			LFHD			RFHD			LBHD			LHIP			RASI			LASI			LKNE			LTHI			LANK			LTIP			LTOE			LMT1			LMT5			LHEE			RKNE			RANK			RTIP			RTOE			RMT1			RMT5			RHEE			RHIP			RTHI			
		X1	Y1	Z1	X2	Y2	Z2	X3	Y3	Z3	X4	Y4	Z4	X5	Y5	Z5	X6	Y6	Z6	X7	Y7	Z7	X8	Y8	Z8	X9	Y9	Z9	X10	Y10	Z10	X11	Y11	Z11	X12	Y12	Z12	X13	Y13	Z13	X14	Y14	Z14	X15	Y15	Z15	X16	Y16	Z16	X17	Y17	Z17	X18	Y18	Z18	X19	Y19	Z19	X20	Y20	Z20	X21	Y21	Z21	X22	Y22	Z22	X23	Y23	Z23	X24	Y24	Z24	X25	Y25	Z25	X26	Y26	Z26	X27	Y27	Z27	X28	Y28	Z28	X29	Y29	Z29	X30	Y30	Z30	X31	Y31	Z31	X32	Y32	Z32	X33	Y33	Z33	X34	Y34	Z34	X35	Y35	Z35	X36	Y36	Z36	X37	Y37	Z37	X38	Y38	Z38	X39	Y39	Z39	X40	Y40	Z40	X41	Y41	Z41	X42	Y42	Z42	X43	Y43	Z43	X44	Y44	Z44	X45	Y45	Z45	X46	Y46	Z46	X47	Y47	Z47	X48	Y48	Z48	X49	Y49	Z49	X50	Y50	Z50	X51	Y51	Z51	X52	Y52	Z52	X53	Y53	Z53	

394	3.93	-328.7374877929688	997.7236938476562	-425.3375549316406	-185.3021240234375	964.3336181640625	-331.8246154785156	-264.1041259765625	1051.979370117188	-365.7159729003906	-380.2065124511719	1223.471435546875	-138.4274749755859	-257.3231506347656	1169.761596679688	-375.7994384765625	-264.3294372558594	1413.617309570312	-316.33935546875	-344.414794921875	1323.588012695312	-188.7679138183594	-306.9903564453125	1280.975830078125	-407.3588562011719	-166.8527374267578	1374.789672851562	-282.8913879394531	-163.4215545654297	1376.61767578125	-178.1488800048828	-71.42927551269531	1270.253051757812	-185.3679046630859	-30.29922103881836	1072.8740234375	-200.3659210205078	-66.67138671875	1060.716796875	-278.1466064453125	-69.21780395507812	843.08740234375	-146.9337921142578	0.5907605290412903	838.7619018554688	-166.5003356933594	-11.86527061462402	969.3881225585938	-190.939697265625	-47.58894729614258	656.8856811523438	-149.2255554199219	6.853221893310547	751.0319213867188	-165.2734069824219	-43.19211959838867	747.0197143554688	-122.3473663330078	-433.66064453125	1392.823608398438	-335.2306213378906	-491.5392761230469	1341.978881835938	-376.0139770507812	-613.2815551757812	1100.773315429688	-392.8480224609375	-534.2870483398438	1066.377563476562	-361.4219055175781	-721.7216796875	941.72119140625	-233.603271484375	-751.1312255859375	926.1452026367188	-313.3751525878906	-661.5753173828125	1050.203125	-371.720458984375	-804.1714477539062	784.3505859375	-187.1559753417969	-805.6068115234375	859.8250732421875	-198.6863250732422	-814.1678466796875	844.4317016601562	-267.3571472167969	-367.3083801269531	1574.718627929688	-302.4774780273438	-312.6266479492188	1584.949829101562	-96.82777404785156	-399.8258361816406	1583.252197265625	-129.5647735595703	-229.8930206298828	1567.264282226562	-251.9850616455078	-147.8558502197266	909.8787841796875	-223.6855621337891	-483.0866088867188	948.3207397460938	-262.9871215820312	-264.2337951660156	932.0066528320312	-137.3930969238281	-336.5347900390625	505.1683654785156	-37.79966735839844	-266.2391357421875	625.2789916992188	-84.41676330566406	-355.4981384277344	59.27619934082031	-129.1249389648438	-339.339599609375	273.3690795898438	-75.03506469726562	-512.790771484375	68.20269012451172	8.161285400390625	-510.8782958984375	48.49552154541016	-68.89093780517578	-410.6547241210938	57.84302139282227	-20.63141250610352	-380.8434448242188	53.80642700195312	-199.4322509765625	-451.0208435058594	482.9194641113281	-423.3471984863281	-373.8121337890625	47.11054992675781	-529.08251953125	-437.5137939453125	357.4811401367188	-428.3020935058594	-422.3742980957031	41.69157409667969	-332.4252014160156	-360.0155944824219	41.38911437988281	-362.6719360351562	-440.029052734375	33.08467483520508	-449.0079650878906	-304.8466796875	48.91261672973633	-551.43115234375	-474.0712585449219	955.9747314453125	-401.97705078125	-501.4264831542969	740.5631713867188	-374.9757385253906	
395	3.94	-334.3567810058594	997.2659301757812	-417.4756164550781	-190.3668670654297	963.54443359375	-325.04736328125	-269.8090209960938	1051.048217773438	-358.523681640625	-383.5368957519531	1222.144287109375	-130.4826202392578	-263.487060546875	1168.144897460938	-369.1121826171875	-269.2406616210938	1411.99365234375	-309.7200622558594	-348.0899353027344	1322.228271484375	-181.1225433349609	-313.44580078125	1279.445922851562	-400.0258178710938	-171.6131134033203	1372.933227539062	-277.3454284667969	-166.8348999023438	1374.787353515625	-172.7263031005859	-74.81704711914062	1268.606201171875	-181.6666870117188	-33.70771789550781	1071.706909179688	-198.7625579833984	-71.52345275878906	1059.61376953125	-275.8109741210938	-70.45856475830078	841.5948486328125	-145.2206115722656	-0.9867576956748962	837.6741943359375	-165.9922027587891	-14.48833560943604	968.2660522460938	-189.9251098632812	-47.73001098632812	655.477783203125	-147.5171203613281	5.904770851135254	750.0701293945312	-164.6977844238281	-43.30999755859375	745.7838134765625	-120.8634719848633	-438.8175964355469	1391.813598632812	-326.4574584960938	-497.3576049804688	1341.115356445312	-366.372802734375	-620.5524291992188	1100.439697265625	-380.2048645019531	-541.2160034179688	1065.609252929688	-350.0574645996094	-728.4383544921875	945.2320556640625	-217.1142425537109	-759.0338745117188	928.4857177734375	-296.2421569824219	-669.0139770507812	1050.639038085938	-357.8653259277344	-811.9436645507812	789.552490234375	-166.73681640625	-812.6848754882812	864.8134155273438	-179.6609802246094	-822.253173828125	848.2569580078125	-247.9254760742188	-371.5714111328125	1573.437866210938	-294.4450073242188	-314.0739135742188	1583.653198242188	-89.59157562255859	-401.7045288085938	1582.136352539062	-121.1139221191406	-233.5599060058594	1565.646606445312	-245.8749389648438	-152.4371490478516	908.8683471679688	-217.1550750732422	-487.6336669921875	946.6031494140625	-254.8388061523438	-268.216064453125	930.5338134765625	-130.1979217529297	-339.1271362304688	503.4310913085938	-32.3184814453125	-268.5987548828125	623.4454956054688	-78.55084991455078	-371.761962890625	54.29332733154297	-98.08652496337891	-348.1155700683594	270.6117858886719	-57.65167236328125	-525.8170776367188	74.94130706787109	41.63917541503906	-526.0103149414062	51.24235153198242	-34.34643936157227	-424.6357116699219	60.23343276977539	11.43709182739258	-398.7652893066406	45.74361419677734	-167.5617065429688	-452.3432006835938	482.6910705566406	-421.5296325683594	-373.9912414550781	47.51952743530273	-529.0396728515625	-438.3622436523438	357.5708923339844	-427.6034545898438	-422.4230041503906	41.77223205566406	-332.4694519042969	-360.0852661132812	41.50332641601562	-362.7370910644531	-440.1078796386719	33.10441207885742	-448.984130859375	-304.9628295898438	49.60252380371094	-551.4571533203125	-479.4463806152344	954.9268188476562	-393.6323852539062	-505.0160522460938	739.2103881835938	-369.2773132324219	
396	3.95	-339.8319396972656	996.6231689453125	-409.4779357910156	-195.3390808105469	962.5304565429688	-318.0321655273438	-275.4543151855469	1049.882934570312	-351.0814819335938	-386.9226684570312	1220.628662109375	-122.4646453857422	-269.567626953125	1166.341430664062	-362.2153625488281	-274.0263671875	1410.170654296875	-302.8962097167969	-351.7634887695312	1320.687622070312	-173.3661956787109	-319.7146301269531	1277.744384765625	-392.5467529296875	-176.2628936767578	1370.87109375	-271.5665283203125	-170.23388671875	1372.739868164062	-167.064208984375	-78.28946685791016	1266.667724609375	-177.5818939208984	-37.38515853881836	1070.228515625	-196.7609405517578	-76.53372192382812	1058.244995117188	-273.0830688476562	-71.94268798828125	839.7174072265625	-143.3898010253906	-2.859869480133057	836.2083740234375	-165.4748077392578	-17.40267372131348	966.7925415039062	-188.6591491699219	-48.19851684570312	653.7010498046875	-146.0836334228516	4.594246387481689	748.7373657226562	-164.2861938476562	-43.69792938232422	744.1127319335938	-119.4987106323242	-443.806640625	1390.62158203125	-317.5968322753906	-502.9976196289062	1340.053466796875	-356.6404113769531	-627.4337158203125	1099.8603515625	-367.6148986816406	-547.7540283203125	1064.593872070312	-338.7460632324219	-734.5333862304688	948.511962890625	-200.7281188964844	-766.3659057617188	930.5882568359375	-279.1585388183594	-676.0043334960938	1050.825927734375	-344.0726013183594	-818.89111328125	794.5921020507812	-146.3224487304688	-819.0678100585938	869.6075439453125	-160.7076721191406	-829.6343383789062	851.8580322265625	-228.4952087402344	-375.651123046875	1571.984375	-286.3906860351562	-315.4473876953125	1582.240844726562	-82.34110260009766	-403.4611511230469	1580.942749023438	-112.6822204589844	-237.0873565673828	1563.823486328125	-239.6609039306641	-157.0619506835938	907.65478515625	-210.2833404541016	-492.1636352539062	944.77001953125	-246.6338958740234	-272.283447265625	928.8140869140625	-122.7957153320312	-341.6030578613281	501.1879577636719	-27.05188369750977	-270.9029846191406	621.1226806640625	-72.90181732177734	-387.095947265625	50.60281753540039	-67.54362487792969	-356.3327941894531	268.2096862792969	-40.69364166259766	-537.38671875	82.45790863037109	74.22850799560547	-539.7996826171875	55.12300109863281	-0.5359230041503906	-437.3077087402344	63.57480621337891	42.67586517333984	-415.85205078125	39.22040939331055	-135.9878234863281	-453.7048034667969	482.3882141113281	-419.4187316894531	-374.1315002441406	47.95559692382812	-528.981689453125	-439.2803955078125	357.5995788574219	-426.6567077636719	-422.4567565917969	41.83264923095703	-332.5052795410156	-360.1392517089844	41.5933723449707	-362.7837829589844	-440.1669311523438	33.14063262939453	-448.9496765136719	-305.0458374023438	50.32350540161133	-551.4446411132812	-484.7239379882812	953.7192993164062	-385.2689514160156	-508.5879211425781	737.74267578125	-363.4862365722656	
397	3.96	-345.1371765136719	995.7723388671875	-401.362548828125	-200.2196960449219	961.2697143554688	-310.7719116210938	-281.004150390625	1048.489135742188	-343.4122314453125	-390.3681945800781	1218.928833007812	-114.375846862793	-275.5511474609375	1164.371215820312	-355.08349609375	-278.6885986328125	1408.165649414062	-295.8620910644531	-355.4201965332031	1318.974243164062	-165.4884643554688	-325.7791748046875	1275.890380859375	-384.9256896972656	-180.7884368896484	1368.618041992188	-265.5655212402344	-173.6049346923828	1370.476196289062	-161.1641387939453	-81.83946228027344	1264.435668945312	-173.1359252929688	-41.29581451416016	1068.429077148438	-194.3471069335938	-81.69917297363281	1056.5947265625	-269.9440002441406	-73.66402435302734	837.4566040039062	-141.4233703613281	-5.033569812774658	834.3655395507812	-164.9246368408203	-20.59939956665039	964.96240234375	-187.1281433105469	-48.99686431884766	651.557373046875	-144.9214477539062	2.911194562911987	747.0242919921875	-164.0285034179688	-44.37004089355469	741.9962768554688	-118.2536849975586	-448.6287231445312	1389.252685546875	-308.646240234375	-508.4639892578125	1338.797241210938	-346.8125	-633.9415283203125	1099.041137695312	-355.0809631347656	-553.9171142578125	1063.338134765625	-327.490234375	-740.0191040039062	951.5415649414062	-184.4727630615234	-773.1454467773438	932.4506225585938	-262.1480712890625	-682.5718994140625	1050.77294921875	-330.3596496582031	-825.0257568359375	799.4442749023438	-125.9713973999023	-824.7430419921875	874.1764526367188	-141.8513336181641	-836.3265991210938	855.224853515625	-209.1008605957031	-379.5625	1570.3740234375	-278.3065795898438	-316.7530212402344	1580.714111328125	-75.06670379638672	-405.1083984375	1579.674194335938	-104.2585601806641	-240.4819183349609	1561.807739257812	-233.3397674560547	-161.7220306396484	906.2433471679688	-203.0449523925781	-496.698486328125	942.8064575195312	-238.3769073486328	-276.4678649902344	926.85498046875	-115.1842269897461	-344.0024108886719	498.5112609863281	-21.85542297363281	-273.1847534179688	618.350830078125	-67.40129089355469	-401.3792419433594	48.08861923217773	-37.98582077026367	-363.9505920410156	266.1369934082031	-24.31643104553223	-547.3597412109375	90.545654296875	105.5937347412109	-552.1122436523438	59.95863342285156	32.15478134155273	-448.5359802246094	67.69176483154297	72.66399383544922	-431.9642944335938	34.18046951293945	-105.2319869995117	-455.1507568359375	481.9879455566406	-416.9610290527344	-374.2160949707031	48.41215896606445	-528.9070434570312	-440.2985229492188	357.5355529785156	-425.3966369628906	-422.48095703125	41.87313842773438	-332.5294799804688	-360.1766052246094	41.65586471557617	-362.8072814941406	-440.2041015625	33.19429016113281	-448.9033203125	-305.0899353027344	51.0767822265625	-551.3902587890625	-489.8889465332031	952.3364868164062	-376.9075012207031	-512.1448974609375	736.1646728515625	-357.5956726074219	
